<?xml version="1.0" encoding="iso-8859-1"?>
<!-- Generator: Adobe Illustrator 19.0.0, SVG Export Plug-In . SVG Version: 6.00 Build 0)  -->
<svg version="1.1" id="Layer_1" xmlns="http://www.w3.org/2000/svg" xmlns:xlink="http://www.w3.org/1999/xlink" x="0px" y="0px"
	 viewBox="0 0 504.123 504.123" style="enable-background:new 0 0 504.123 504.123;" xml:space="preserve">
<g>
	<path style="fill:#070A14;" d="M119.209,346.356c0,15.738-12.745,28.475-28.467,28.475H31.429
		c-15.722,0-28.459-12.737-28.459-28.475V28.459C2.97,12.737,15.707,0,31.429,0h59.305c15.722,0,28.467,12.737,28.467,28.459
		v317.897H119.209z"/>
	<path style="fill:#070A14;" d="M472.694,258.584c15.722,0,28.459,12.753,28.459,28.459v59.305
		c0,15.722-12.737,28.475-28.459,28.475H31.429c-15.722,0-28.459-12.753-28.459-28.475v-59.305
		c0-15.707,12.737-28.459,28.459-28.459H472.694z"/>
</g>
<path style="fill:#394463;" d="M2.97,346.356V28.459C2.97,12.737,15.707,0,31.429,0h59.305c15.722,0,28.467,12.737,28.467,28.459"/>
<path style="fill:#070A14;" d="M377.801,475.648c0,15.738-12.753,28.475-28.475,28.475H290.02
	c-15.714,0-28.459-12.737-28.459-28.475V157.751c0-15.722,12.745-28.459,28.459-28.459h59.305c15.722,0,28.475,12.737,28.475,28.459
	V475.648z"/>
<g>
	<path style="fill:#FFD400;" d="M61.078,66.418c2.631,0,4.758-2.111,4.758-4.742V42.693c0-2.615-2.127-4.742-4.758-4.742
		c-2.615,0-4.742,2.127-4.742,4.742v18.983C56.336,64.307,58.463,66.418,61.078,66.418z"/>
	<path style="fill:#FFD400;" d="M61.078,200.633c2.631,0,4.758-2.127,4.758-4.742v-33.556c0-2.631-2.127-4.758-4.758-4.758
		c-2.615,0-4.742,2.127-4.742,4.758v33.556C56.336,198.506,58.463,200.633,61.078,200.633z"/>
	<path style="fill:#FFD400;" d="M61.078,267.737c2.631,0,4.758-2.127,4.758-4.742v-33.571c0-2.615-2.127-4.742-4.758-4.742
		c-2.615,0-4.742,2.127-4.742,4.742v33.571C56.336,265.618,58.463,267.737,61.078,267.737z"/>
	<path style="fill:#FFD400;" d="M61.078,133.537c2.631,0,4.758-2.127,4.758-4.758V95.224c0-2.615-2.127-4.742-4.758-4.742
		c-2.615,0-4.742,2.127-4.742,4.742v33.556C56.336,131.419,58.463,133.537,61.078,133.537z"/>
	<path style="fill:#FFD400;" d="M319.677,205.202c2.615,0,4.742-2.127,4.742-4.742v-18.983c0-2.615-2.127-4.742-4.742-4.742
		c-2.631,0-4.758,2.127-4.758,4.742v18.983C314.919,203.075,317.046,205.202,319.677,205.202z"/>
	<path style="fill:#FFD400;" d="M319.677,363.481c-2.631,0-4.758,2.127-4.758,4.742v33.556c0,2.631,2.127,4.758,4.758,4.758
		c2.615,0,4.742-2.127,4.742-4.758v-33.556C324.419,365.6,322.292,363.481,319.677,363.481z"/>
	<path style="fill:#FFD400;" d="M319.677,272.321c2.615,0,4.742-2.127,4.742-4.758v-33.556c0-2.615-2.127-4.742-4.742-4.742
		c-2.631,0-4.758,2.127-4.758,4.742v33.556C314.919,270.202,317.046,272.321,319.677,272.321z"/>
	<path style="fill:#FFD400;" d="M319.677,430.584c-2.631,0-4.758,2.111-4.758,4.742v18.983c0,2.615,2.127,4.742,4.758,4.742
		c2.615,0,4.742-2.127,4.742-4.742v-18.983C324.419,432.695,322.292,430.584,319.677,430.584z"/>
	<path style="fill:#FFD400;" d="M80.069,311.958H65.827v-15.415c0-2.615-2.127-4.742-4.758-4.742c-2.615,0-4.742,2.127-4.742,4.742
		v18.983c0,0.197,0.102,0.386,0.126,0.583c-0.024,0.197-0.126,0.37-0.126,0.583c0,2.631,2.127,4.758,4.742,4.758h18.991
		c2.623,0,4.75-2.127,4.75-4.758C84.819,314.077,82.692,311.958,80.069,311.958z"/>
	<path style="fill:#FFD400;" d="M243.68,311.958h-40.905c-2.623,0-4.758,2.127-4.758,4.742c0,2.631,2.135,4.758,4.758,4.758h40.905
		c2.615,0,4.742-2.127,4.742-4.758C248.415,314.077,246.296,311.958,243.68,311.958z"/>
	<path style="fill:#FFD400;" d="M407.276,311.958h-40.905c-2.623,0-4.75,2.127-4.75,4.742c0,2.631,2.127,4.758,4.75,4.758h40.905
		c2.615,0,4.742-2.127,4.742-4.758C412.018,314.077,409.891,311.958,407.276,311.958z"/>
	<path style="fill:#FFD400;" d="M325.474,311.958h-1.063v-10.831c0-2.631-2.127-4.758-4.742-4.758c-2.631,0-4.758,2.127-4.758,4.758
		v10.831h-30.358c-2.623,0-4.75,2.127-4.75,4.742c0,2.631,2.127,4.758,4.75,4.758h30.358v13.233c0,2.615,2.127,4.742,4.758,4.742
		c2.615,0,4.742-2.127,4.742-4.742v-13.233h1.063c2.615,0,4.742-2.127,4.742-4.758C330.216,314.077,328.09,311.958,325.474,311.958z
		"/>
	<path style="fill:#FFD400;" d="M161.879,311.958h-40.905c-2.623,0-4.758,2.127-4.758,4.742c0,2.631,2.135,4.758,4.758,4.758h40.905
		c2.615,0,4.742-2.127,4.742-4.758C166.613,314.077,164.494,311.958,161.879,311.958z"/>
	<path style="fill:#FFD400;" d="M467.149,311.958h-18.976c-2.623,0-4.75,2.127-4.75,4.742c0,2.631,2.127,4.758,4.75,4.758h18.976
		c2.623,0,4.75-2.127,4.75-4.758C471.891,314.077,469.772,311.958,467.149,311.958z"/>
</g>
<g>
</g>
<g>
</g>
<g>
</g>
<g>
</g>
<g>
</g>
<g>
</g>
<g>
</g>
<g>
</g>
<g>
</g>
<g>
</g>
<g>
</g>
<g>
</g>
<g>
</g>
<g>
</g>
<g>
</g>
</svg>
