<?xml version="1.0" encoding="iso-8859-1"?>
<!-- Generator: Adobe Illustrator 19.0.0, SVG Export Plug-In . SVG Version: 6.00 Build 0)  -->
<svg version="1.1" id="Layer_1" xmlns="http://www.w3.org/2000/svg" xmlns:xlink="http://www.w3.org/1999/xlink" x="0px" y="0px"
	 viewBox="0 0 511.999 511.999" style="enable-background:new 0 0 511.999 511.999;" xml:space="preserve">
<g>
	<g>
		<path d="M409.24,142.041c-31.517-31.518-71.037-52.118-113.975-59.934V69.453h31.956V0H184.778v69.453h31.955v12.655
			c-42.938,7.815-82.457,28.416-113.975,59.933c-40.932,40.931-63.475,95.354-63.475,153.242c0,57.888,22.542,112.31,63.475,153.242
			c40.932,40.932,95.355,63.475,153.242,63.475c57.888,0,112.311-22.542,153.242-63.475c40.932-40.931,63.475-95.354,63.475-153.242
			S450.173,182.973,409.24,142.041z M376.471,153.301l-13.744,13.744l21.508,21.508l13.744-13.743
			c24.543,28.88,40.451,65.308,43.695,105.265h-31.556c-7.176-73.277-65.634-131.735-138.911-138.911v-31.541
			c0.343,0.027,0.685,0.047,1.028,0.076c0.299,0.026,0.598,0.053,0.896,0.08c1.513,0.139,3.024,0.297,4.533,0.471
			C315.086,114.604,349.155,130.088,376.471,153.301z M246.726,264.503l64.801-24.748l-24.747,64.801L246.726,264.503z
			 M265.272,326.064l-64.801,24.747l24.747-64.8L265.272,326.064z M207.601,246.885l-48.345,126.587
			c-17.317-21.384-27.707-48.595-27.707-78.19c0-68.622,55.829-124.451,124.45-124.451c29.596,0,56.806,10.392,78.191,27.708
			L207.601,246.885z M247.149,78.749v-9.297h17.699v9.297c-0.487-0.02-0.971-0.028-1.458-0.045
			c-0.856-0.028-1.711-0.061-2.567-0.079c-1.518-0.034-3.034-0.054-4.549-0.055c-0.091,0-0.182-0.003-0.274-0.003
			c-0.089,0-0.177,0.003-0.267,0.003c-1.518,0.002-3.037,0.021-4.558,0.056c-0.856,0.018-1.708,0.051-2.562,0.079
			C248.124,78.721,247.638,78.729,247.149,78.749z M216.732,39.035h-1.537v-8.618h81.609v8.618h-1.539H216.732z M114.018,174.81
			l13.744,13.744l21.508-21.508l-13.743-13.744c27.318-23.214,61.39-38.7,98.814-43.053c1.505-0.174,3.012-0.333,4.521-0.47
			c0.301-0.027,0.602-0.054,0.903-0.08c0.342-0.029,0.683-0.049,1.026-0.076v31.541c-73.278,7.175-131.736,65.633-138.912,138.91
			H70.324C73.568,240.117,89.476,203.689,114.018,174.81z M240.791,480.958c-39.958-3.244-76.386-19.153-105.265-43.694
			l13.743-13.744l-21.508-21.508l-13.744,13.744c-24.543-28.879-40.451-65.307-43.694-105.265h31.556
			c7.176,73.277,65.634,131.735,138.911,138.911V480.958z M255.999,419.732c-29.596,0-56.806-10.392-78.191-27.708l126.589-48.343
			l48.344-126.588c17.317,21.384,27.707,48.595,27.707,78.19C380.449,363.905,324.62,419.732,255.999,419.732z M397.98,415.756
			l-13.743-13.743l-21.508,21.508l13.744,13.744c-28.879,24.542-65.307,40.451-105.265,43.694v-31.556
			c73.277-7.176,131.735-65.634,138.911-138.911h31.556C438.431,350.448,422.522,386.876,397.98,415.756z"/>
	</g>
</g>
<g>
</g>
<g>
</g>
<g>
</g>
<g>
</g>
<g>
</g>
<g>
</g>
<g>
</g>
<g>
</g>
<g>
</g>
<g>
</g>
<g>
</g>
<g>
</g>
<g>
</g>
<g>
</g>
<g>
</g>
</svg>
